<?xml version="1.0" encoding="UTF-8" standalone="no"?>
<svg xmlns="http://www.w3.org/2000/svg" height="50pt" width="50pt" version="1.1" xmlns:xlink="http://www.w3.org/1999/xlink" viewBox="0 0 50 50">
 <g id="surface1">
  <path d="m25 0c-13.73 0-25 11.27-25 25 0 11.719 8.2227 22.363 19.141 25v-8.27c-1.082 0.235-2.079 0.243-3.18-0.082-1.477-0.437-2.676-1.421-3.566-2.921-0.571-0.957-1.579-1.997-2.6255-1.922l-0.2578-2.918c2.2693-0.196 4.2343 1.383 5.3983 3.343 0.52 0.872 1.117 1.383 1.883 1.61 0.738 0.215 1.531 0.113 2.457-0.215 0.234-1.852 1.082-2.547 1.723-3.523-6.512-0.973-9.106-4.426-10.137-7.153-1.3633-3.621-0.633-8.144 1.781-11.004 0.047-0.054 0.133-0.199 0.098-0.3-1.106-3.344 0.242-6.11 0.293-6.403 1.277 0.375 1.484-0.3787 5.547 2.086l0.703 0.422c0.293 0.176 0.203 0.078 0.496 0.055 1.695-0.461 3.484-0.715 5.246-0.739 1.773 0.024 3.551 0.278 5.32 0.758l0.227 0.024c-0.02-0.004 0.062-0.016 0.199-0.098 5.074-3.0742 4.891-2.07 6.254-2.512 0.047 0.293 1.379 3.106 0.285 6.407-0.148 0.453 4.399 4.617 1.879 11.3-1.031 2.731-3.625 6.184-10.137 7.157 0.836 1.273 1.836 1.949 1.832 4.574v10.324c10.918-2.637 19.141-13.281 19.141-25 0-13.73-11.27-25-25-25z"/>
 </g>
</svg>
