<?xml version="1.0" encoding="UTF-8" standalone="no"?>
<svg xmlns="http://www.w3.org/2000/svg" height="50pt" width="50pt" version="1.1" xmlns:xlink="http://www.w3.org/1999/xlink" viewBox="0 0 50 50">
 <g id="surface1">
  <path d="m0.0078125 1.9727c0 1.7461 0.023438 1.9335 0.12891 1.5898 0.50781-1.6016 1.7774-2.8672 3.3711-3.375l0.5469-0.17969-2.0235 0.0000025-2.0312-0.0078125z"/>
  <path d="m46.492 0.1875c1.625 0.51562 2.93 1.8516 3.352 3.4375 0.136 0.5078 0.148 0.4453 0.148-1.5547l0.008-2.0703-2.023 0.0078125h-2.032z"/>
  <path d="m0 10.578v0.524l0.44922 0.07c0.2539 0.031 0.60548 0.058 0.78128 0.058h0.332v27.637h-0.4766c-0.26559 0-0.61715 0.031-0.78121 0.059-0.29688 0.058-0.30469 0.078-0.30469 0.586v0.527h10.254v-0.957l-0.5079-0.051c-0.2852-0.039-1.0352-0.086-1.6602-0.125l-1.1523-0.058v-12.871h0.8867c1.25 0 1.5859 0.117 2.2967 0.828 1.086 1.078 1.594 2.004 3.125 5.695 1.219 2.949 1.758 4.082 2.344 4.969 0.84 1.261 1.883 2.07 3.078 2.383 0.242 0.062 1.617 0.128 3.191 0.156l2.754 0.051v-1.172l-0.578-0.098c-1.551-0.273-2.515-1.32-4.011-4.316-0.391-0.77-0.872-1.785-1.075-2.246-1.179-2.665-2.07-4.149-2.949-4.922-0.926-0.813-2.734-1.524-3.855-1.524-0.649 0-0.5-0.136 0.289-0.281 1.758-0.324 3.664-1.133 5.023-2.148 0.926-0.688 1.563-1.438 2.031-2.407 0.446-0.937 0.633-1.679 0.704-2.898 0.242-4.211-2.102-6.789-7.024-7.703-1.035-0.196-1.504-0.219-7.1288-0.258l-6.0352-0.047zm10.645 0.867c1.824 0.332 3.152 1.649 3.671 3.641 0.262 0.988 0.262 3.969 0 5.078-0.558 2.406-1.746 3.75-3.816 4.289-0.7422 0.195-2.7969 0.391-3.2344 0.313l-0.332-0.071v-13.257l0.5195-0.051c0.2735-0.028 0.6641-0.078 0.8477-0.098 0.4687-0.047 1.6992 0.031 2.3442 0.156z"/>
  <path d="m25.391 10.527v0.489l0.664 0.058c0.359 0.028 1.086 0.09 1.609 0.117l0.949 0.059v27.586l-1.093 0.07c-0.606 0.039-1.34 0.086-1.614 0.117l-0.515 0.059v0.957h11.914v-0.957l-0.508-0.051c-0.281-0.039-1.035-0.086-1.66-0.125l-1.153-0.058v-12.871h0.891c1.25 0 1.578 0.117 2.293 0.828 1.082 1.078 1.59 2.004 3.125 5.695 1.223 2.949 1.758 4.082 2.344 4.969 0.84 1.273 1.894 2.082 3.074 2.375 0.234 0.058 1.301 0.136 2.367 0.164l1.922 0.062-0.008-0.82v-0.82l-0.492-0.375c-0.262-0.203-0.703-0.664-0.977-1.024-0.484-0.664-1.929-3.445-2.957-5.734-1.3-2.867-2.238-4.063-3.8-4.82-0.711-0.352-1.981-0.696-2.578-0.696-0.641 0-0.497-0.136 0.296-0.281 1.758-0.324 3.661-1.133 5.016-2.148 0.93-0.688 1.562-1.438 2.031-2.407 0.453-0.937 0.637-1.679 0.703-2.898 0.246-4.211-2.097-6.777-7.019-7.715-1.043-0.195-1.465-0.207-7.957-0.246l-6.867-0.039zm12.304 0.918c1.828 0.332 3.157 1.649 3.672 3.641 0.266 0.988 0.266 3.969 0 5.078-0.555 2.406-1.75 3.75-3.82 4.289-0.742 0.195-2.789 0.391-3.231 0.313l-0.332-0.071v-13.257l0.516-0.051c0.273-0.028 0.664-0.078 0.852-0.098 0.468-0.047 1.699 0.031 2.343 0.156z"/>
  <path d="m0.0078125 47.969l-0.0078125 2.031 2.0312-0.008h2.0235l-0.5391-0.18c-0.8594-0.273-1.3672-0.585-2.0117-1.187-0.64452-0.625-1.043-1.273-1.3164-2.133l-0.17969-0.547z"/>
  <path d="m49.812 46.477c-0.359 1.414-1.687 2.781-3.23 3.296l-0.637 0.219 2.032 0.008h2.023v-2c0-1.105-0.008-2.004-0.031-2.004-0.016 0-0.086 0.215-0.157 0.481z"/>
 </g>
</svg>
