<?xml version="1.0" encoding="UTF-8" standalone="no"?>
<svg xmlns="http://www.w3.org/2000/svg" height="50pt" width="50pt" version="1.1" xmlns:xlink="http://www.w3.org/1999/xlink" viewBox="0 0 50 50">
 <g id="surface1">
  <path d="m29.785 25c0 2.645-2.14 4.785-4.785 4.785s-4.785-2.14-4.785-4.785 2.14-4.785 4.785-4.785 4.785 2.14 4.785 4.785z"/>
  <path d="m36.191 16.535c-0.23-0.625-0.597-1.187-1.074-1.652-0.465-0.477-1.027-0.844-1.652-1.074-0.504-0.196-1.266-0.43-2.664-0.493-1.516-0.07-1.969-0.086-5.801-0.086s-4.289 0.016-5.801 0.086c-1.398 0.063-2.16 0.297-2.664 0.493-0.625 0.23-1.187 0.597-1.652 1.074-0.477 0.465-0.844 1.027-1.074 1.652-0.196 0.504-0.43 1.266-0.493 2.664-0.07 1.516-0.086 1.969-0.086 5.801s0.016 4.289 0.086 5.801c0.063 1.398 0.297 2.16 0.493 2.664 0.23 0.625 0.597 1.187 1.074 1.652 0.465 0.477 1.027 0.844 1.652 1.074 0.504 0.196 1.266 0.43 2.664 0.497 1.512 0.066 1.969 0.082 5.801 0.082s4.289-0.016 5.801-0.082c1.398-0.067 2.16-0.301 2.664-0.497 1.254-0.484 2.242-1.472 2.726-2.726 0.196-0.504 0.43-1.266 0.493-2.664 0.07-1.512 0.086-1.969 0.086-5.801s-0.016-4.285-0.086-5.801c-0.063-1.398-0.297-2.16-0.493-2.664zm-11.191 15.836c-4.07 0-7.371-3.301-7.371-7.371s3.301-7.371 7.371-7.371 7.371 3.301 7.371 7.371-3.301 7.371-7.371 7.371zm7.664-13.312c-0.953 0-1.723-0.77-1.723-1.723 0-0.949 0.77-1.723 1.723-1.723 0.949 0 1.723 0.774 1.723 1.723 0 0.953-0.774 1.723-1.723 1.723z"/>
  <path d="m25 0c-13.805 0-25 11.195-25 25s11.195 25 25 25 25-11.195 25-25-11.195-25-25-25zm14.27 30.918c-0.071 1.527-0.313 2.57-0.668 3.484-0.747 1.93-2.27 3.453-4.2 4.2-0.91 0.355-1.957 0.597-3.484 0.668-1.531 0.07-2.02 0.085-5.918 0.085s-4.387-0.015-5.918-0.085c-1.527-0.071-2.57-0.313-3.484-0.668-0.957-0.36-1.828-0.926-2.543-1.657-0.731-0.715-1.297-1.586-1.657-2.543-0.355-0.91-0.597-1.957-0.668-3.484-0.07-1.531-0.085-2.02-0.085-5.918s0.015-4.387 0.085-5.918c0.071-1.527 0.313-2.57 0.668-3.484 0.36-0.957 0.926-1.828 1.657-2.543 0.715-0.731 1.586-1.297 2.543-1.657 0.914-0.355 1.957-0.597 3.484-0.668 1.531-0.07 2.02-0.085 5.918-0.085s4.387 0.015 5.918 0.085c1.527 0.071 2.57 0.313 3.484 0.668 0.957 0.36 1.828 0.926 2.543 1.657 0.731 0.715 1.297 1.586 1.657 2.543 0.355 0.914 0.597 1.957 0.668 3.484 0.07 1.531 0.085 2.02 0.085 5.918s-0.015 4.387-0.085 5.918z"/>
 </g>
</svg>
