<?xml version="1.0" encoding="UTF-8" standalone="no"?>
<svg xmlns="http://www.w3.org/2000/svg" height="50pt" width="50pt" version="1.1" xmlns:xlink="http://www.w3.org/1999/xlink" viewBox="0 0 50 50">
 <g id="surface1">
  <path fill="#010002" d="m25 0c-13.805 0-25 11.195-25 25s11.195 25 25 25 25-11.195 25-25c0-13.809-11.195-25-25-25zm-6.25 37.109h-6.25v-21.875h6.25zm-2.93-23.214c-1.621 0-2.929-1.313-2.929-2.934 0-1.6172 1.312-2.9298 2.929-2.9298 1.618 0.004 2.93 1.3165 2.93 2.9298 0 1.621-1.312 2.934-2.93 2.934zm24.805 23.214h-6.25v-13.523c0-1.586-0.453-2.695-2.398-2.695-3.231 0-3.852 2.695-3.852 2.695v13.523h-6.25v-21.875h6.25v2.09c0.895-0.683 3.125-2.086 6.25-2.086 2.023 0 6.25 1.211 6.25 8.535z"/>
 </g>
</svg>
