<?xml version="1.0" encoding="UTF-8" standalone="no"?>
<svg xmlns="http://www.w3.org/2000/svg" height="50pt" width="50pt" version="1.1" xmlns:xlink="http://www.w3.org/1999/xlink" viewBox="0 0 50 50">
 <g id="surface1">
  <path d="m24.824 0c-13.687 0-24.824 11.137-24.824 24.824 0 13.692 11.137 24.828 24.824 24.828 13.692 0 24.828-11.136 24.828-24.828 0-13.687-11.136-24.824-24.828-24.824zm11.078 19.145c0.008 0.246 0.016 0.492 0.016 0.742 0 7.551-5.746 16.254-16.258 16.254-3.226 0-6.23-0.942-8.762-2.567 0.45 0.055 0.903 0.082 1.364 0.082 2.679 0 5.14-0.914 7.097-2.445-2.5-0.047-4.609-1.699-5.336-3.969 0.348 0.067 0.707 0.102 1.075 0.102 0.519 0 1.023-0.067 1.504-0.199-2.614-0.524-4.582-2.833-4.582-5.602v-0.074c0.769 0.429 1.652 0.687 2.585 0.715-1.531-1.024-2.539-2.774-2.539-4.754 0-1.047 0.282-2.032 0.774-2.875 2.816 3.457 7.027 5.73 11.777 5.972-0.097-0.418-0.148-0.855-0.148-1.304 0-3.153 2.558-5.711 5.715-5.711 1.64 0 3.125 0.691 4.168 1.8 1.304-0.253 2.523-0.726 3.632-1.386-0.429 1.336-1.336 2.457-2.515 3.164 1.156-0.141 2.258-0.445 3.281-0.899-0.762 1.145-1.73 2.149-2.848 2.954z"/>
 </g>
</svg>
