<?xml version="1.0" encoding="UTF-8" standalone="no"?>
<svg xmlns="http://www.w3.org/2000/svg" height="50pt" width="50pt" version="1.1" xmlns:xlink="http://www.w3.org/1999/xlink" viewBox="0 0 50 50">
 <g id="surface1">
  <path d="m2.8789 12.863c4.1719-7.7771 12.531-12.863 22.176-12.863 6.242 0 11.945 2.6602 16.324 6.4141-1.25-0.2422-2.617 0.0312-3.992 0.8164-3.223 1.8476-4.278 7.0785-0.098 9.7075 2.609 1.628 3.535 5.71 3.449 8.203-0.086 2.5-6.066 13.968-6.066 13.968l-5.82-19.992s-0.2-1.402-0.2-1.805c0-0.511 0.168-1.132 0.481-1.492 0.219-0.238 0.551-0.734 0.941-0.734h2.758v-2.223h-15v2.223h0.465c0.492 0 0.973 0.66 1.433 1.133 0.551 0.566 1.239 2.695 2.075 4.902l2.179 7.184-4.699 10.863-5.156-21.711s0.152-1.484 0.461-1.738c0.207-0.176 0.515-0.633 0.879-0.633h0.14v-2.223zm2.9414 3.774s-1.2148-1.551-2.5039-1.551h-1.3047c-1.2617 2.777-1.957 6.508-1.957 9.926-0.000012 10.289 6.3086 19.109 15.293 22.867zm40.746-3.973c0.477 2.254 0.379 4.988-0.546 7.996-2.418 7.828-8.403 21.906-10.719 27.27 8.695-3.883 14.754-12.551 14.754-22.629 0-4.613-1.274-8.934-3.489-12.637zm-21.007 21.133l-6.391 15.613c1.887 0.453 3.855 0.699 5.887 0.699 2.101 0 4.136-0.261 6.086-0.746z"/>
 </g>
</svg>
